<mxfile host="app.diagrams.net" modified="2024-05-26T08:18:07.622Z" agent="Mozilla/5.0 (Windows NT 10.0; Win64; x64) AppleWebKit/537.36 (KHTML, like Gecko) Chrome/125.0.0.0 Safari/537.36" etag="8jy9J32wHoNlFsKv2PUP" version="24.4.8" type="github">
  <diagram name="第 1 页" id="j04bHKYZq8fruQPVViW6">
    <mxGraphModel dx="1221" dy="759" grid="0" gridSize="10" guides="1" tooltips="1" connect="1" arrows="1" fold="1" page="1" pageScale="1" pageWidth="827" pageHeight="1169" math="0" shadow="0">
      <root>
        <mxCell id="0" />
        <mxCell id="1" parent="0" />
        <mxCell id="m4RghLFEex4PMgL7YoKE-3" value="&lt;b&gt;&lt;font style=&quot;font-size: 16px;&quot;&gt;音频样本&lt;/font&gt;&lt;/b&gt;" style="text;html=1;align=center;verticalAlign=middle;whiteSpace=wrap;rounded=0;" parent="1" vertex="1">
          <mxGeometry x="75" y="170" width="70" height="30" as="geometry" />
        </mxCell>
        <mxCell id="m4RghLFEex4PMgL7YoKE-4" value="" style="shape=flexArrow;endArrow=classic;html=1;rounded=0;fillColor=#6C8EBF;strokeColor=#6C8EBF;width=8.965517241379311;endSize=2.5933333333333333;endWidth=8.011494252873563;" parent="1" edge="1">
          <mxGeometry width="50" height="50" relative="1" as="geometry">
            <mxPoint x="150" y="150.17" as="sourcePoint" />
            <mxPoint x="180" y="149.82999999999998" as="targetPoint" />
          </mxGeometry>
        </mxCell>
        <mxCell id="m4RghLFEex4PMgL7YoKE-5" value="" style="shape=image;verticalLabelPosition=bottom;labelBackgroundColor=default;verticalAlign=top;aspect=fixed;imageAspect=0;image=data:image/png,iVBORw0KGgoAAAANSUhEUgAAAMgAAADICAYAAACtWK6eAAAAAXNSR0IArs4c6QAAH49JREFUeF7tXWmAHFW1Pqd6MiyBgAjyZJdFAUFREFkzXR0ggiA7PFkUUAKZrh7S1QkICg7LC9t0VTJdPWwCiqC+oIAgSyDT1RMWQQH1CQICooAssigRhGSm67xUZ5J0971VXVPTnZ6ZOvWz69xz7/3O/bqq7j0LAl+MACPgiQAyNowAI+CNABOEVwcj4IMAE4SXByPABOE1wAiEQ4CfIOFw41YRQYAJEhFD8zTDIcAECYcbt4oIAkyQiBiapxkOASZIONy4VUQQYIJExNA8zXAIMEHC4catIoIAEyQihuZphkOACRION24VEQSYIBExNE8zHAJMkHC4cauIIMAEiYiheZrhEGCChMONW0UEASZIRAzN0wyHABMkHG7cKiIIMEEiYmieZjgEmCDhcONWEUGACRIRQ/M0wyHABAmHG7eKCAJMkIgYmqcZDgEmSDjcuFVEEGCCRMTQPM1wCDBBwuHGrSKCABMkIobmaYZDgAkSDjduFREEmCARMTRPMxwCTJBwuHGriCDABImIoXma4RBggoTDjVtFBAEmSEQMzdMMhwATJBxu3CoiCDBBImJonmY4BJgg4XDjVhFBgAkSEUPzNMMhwAQJhxu3iggCTJA1aOiZVy76HCqT/tmX6XhlDXbLXY0CASbIKMAL2rQzO7AlgvMLRPhSuQ05F1qZad1B27Nc6xBggjQZ+2O7F7RvOmWTuwHggMquCJ1v5NPTftzk7ln9KBFggowSwHrNO7P2KQrCjbVyCHhXTo9/rV57vt9aBJggTcZfM4u9QJQSCILw21xa3bPJ3bP6USLABBklgPWap4ziwwS0j4Qgz+XS6o712vP91iLABGki/sm5iz6Oa7e9DkCTJN28YenqJ5vYPatuAAJMkAaA6KWi0+g/SAFlofQ+4n+sdHxyE7tn1Q1AgAnSABC9VCSzhXMRca7X/Y2XwKTubnWoiUNg1aNEgAkySgD9mqcM+1YCOMZLhtpLG+e1A95p4hBY9SgRYIKMEkC/5ppR/AsAfcpTZpKyrZXqeKmJQ2DVo0SACTJKAL2ad11p7+LE4I9+6h2EL/Sl1d83aQistgEIMEEaAKJMRdKwv4kAP/RTT4rSkZ/VsbhJQ2C1DUCACdIAEGUqtGyhFxCFA8JKWVLgsPws9VdNGgKrbQACTJAGgCgliGE/BAD71nnFOqkvrd7SpCGw2gYgwARpAIi1KtLGfRsNwlp1d6cQsTOXjl/VhCGwygYhwARpEJCVapI9iw5EJXZ/ANXnWrp6WQA5FmkRAkyQJgCvGfZ3AODSuqqRLrXSifPqyrFAyxBggjQBes0sLgCiY+upRoR8Lq1q9eT4fusQYII0AXvNsN8AgE0DqL7Z0tWTA8ixSIsQYII0GPikUfgsAj4VSC3inVY6fnggWRZqCQJMkAbDnsoWvkGIPwqmlgYsPREPJstSrUCACdJg1JPZwnxE7BLV0hIAnFLz++8sXf1ig4fA6hqIABOkgWC6qpJZ+3FE2F1Ui68A0JZVvyO8aKXV7Rs8BFbXQASYIA0Ec+alD34sttbQux4qnwaAz1beI4C387q6SQOHwKoajAATpIGApkz7ACJ4wEPlrwFg78p7CLgsp8fXauAQWFWDEWCCNBDQZNY+BxEkJ+P4MpDzDCBOr+2OowobaIAmqGKCNBBUzbRvB4IjBJWIdyLBRwR0XO09jipsoAGaoIoJ0kBQU0ZxCQGtX6sSAS8Cos0I4dvCvSFn+9zZ015s4DBYVQMRYII0CMxUz6KdSYm5H+LCRYBHKeTsR4i68ATB2O759NQnGzQMVtNgBJggDQI0afafjKTcJKHHMijFdsQYnUxAF4qvX840Kz2t0KBhsJoGI8AEGQa003xgJ4XaDgfEvWGITGuOWhwJ1pph5wBAcDxEhIdyaXX/ZNaehQimSBA40kqrd4ykL5ZdcwgwQQBgZt+DH2tbWlpIRCvKE7gX4iFWOn5vUFNohv0nANhJIm9ZuppKZgunIeL1wisWwCl5XQ3omhJ0NCzXKASYIO7fvmH/HACOrgH1BWz7cJdc1yFL64E9y7Q3HCL4p4fcty1dvV7LLj4asOT2U30hdlnpuPv04WsMIhB5gnRd9sBWTnubu4vUJqzdgDtMyWxhGiIuktlXidEevWclnkjOKx6IDglRhgRwfl5XLxmDa4OH5L5IRB0FzSieCkA3yHAImpZHMwtnA+Hlog7885tbdOx863FYSs4rfBkdfFR8xaIr83ri7KjbYazOnwliFG8BoBPkBlJOtPSOn9QzXsooLiSggwQ5op9amURZ9/AmgPudUnUhwjW5tHpmvT74fmsQiDRBOvP2espS+AsAyB0Gkc6x0okr6plGMwolAFTE74vV7bXcQ5vB4ODfJbp+Zunq1+v1Ue9+yiwcRYQpRPhBG611r6nv4+U0WU8V369AINIE0XrsI0CB2z1XBFHOyiQksR2rW3SaAzsp5AhPBlfCAWd6nz6t/N2R6n10Cg19+J7kNeweS49/dTSrUjPt2UBwZYWOp7Etdlyua6p0XKPpK2ptI02QVNa2CCHpaXTE26x0vHZ3q0pcy9onAYKsGOf7Q6Vl2109Z/o/3Abd3aS8PaVYkrxilc9Jwi48zSicAIBC8jkEmJ3T1WxYvdxuBQKRJohm2H8GgB28FwP+xtLjX/ZbLMls8XpEOk1Y+ID35/R4lfeuZtgk0fVHS1c/F3ZBakbhFgCUfUNdbenqzLB6uV3ECZKcNzAVHWfAdyEgvmal45v7yWiG/VcA2FryZLg8l1bd/FirLg+C/M3S1W3CLkjNsJ8BAKHWIQHcl9fVg8Pq5XYRJ4hmFl0P2/PrLYShUvumV8/Zt/yaVHvNuOyBDdrb2/4lu0cAX8/r6s+qCVJcJqlX+C9LVz9Wbxyy+2nzwW0HaUjuCUzwrJVRZSf7YbqKbJsJ8YqV6l28Mw2V9gYH3mmLQXFeWpUu2urFWngMAOuWYUZq2y2X2f8PshWimf0JIKVfunoc2MmarT5b1adpvw0EH6+WR8fS47EwKzBl2scQwa0ebT+0dHXdMHq5zWoExj1BkqZ9IxKcUmHUoqWrqp+RNWNgVwDn/4IsBAXg4F5dvU9KkKzdDQjfF+4RPGVl1F1rf9cM291SFipOhY0q1MzCXCA812sezhB8su9s1U1ix1dIBMY1QbSewnRQUFi8ikN79M5OPOGFiWYU0stT8BgBMSv7UkkJ4lnigK6z9MQMkSCF3wPg52t/DxtVqGXt+wBBCONdqZ9KtFd+TuKxgPNkMQkC45sgHjs4RJTJZxKeBNBM+z4g74VVhRNCt5VWxTiOFU6Osl0pAKCkpSf6BIKYxQEgmlr7Owb0+aps191tt709BV7zPOQEAAWU43v1jgW88sMjMG4JMrOnsHtMwcc9pn63pauHyu6ljf7NB0F5VfgXB/g3AgjhsgB4naXHxadBj70jKODuIAmXQsq+vZmORySvWHcBgDAuChFVmDL69yRQ/J8OAT0Bwi+fid9y3BIkaRTmI8gyGJaN9pGlq+vIzOddOxCvA6DTJW3utXT1kNrfk6b9bSS4TpSnd5dNnrLltWfs8R/JK5b8zAJHHlWYmmefQQ5c7bdEieiqfCbROfGXcfNmOC4Jkuzp3xoVxT1/8L6Q9rPSiYeFRZq1fwYIxwsNUZkG5Mh2pKQHeZph/xQA/lsygF9ZunqYbGAps9hHRMLhnRuzntfj3i4vEmWaUbwGgIQnW7UojtiNRTOL7tnJ9krJecTvO655S3JsaR6fBDEKFyCg9LtgJbwE9P28nrioEu4Z3Xet2z5lPfe9fYMaMwxautquGYV3AHCjqnsE/1x3aNLWV5yz378rf9fM4j+ASHByRIDzcx7xHSnTvowIzhGXgHOapU+7cSRLQzPs3wLAHv5t6E+WnqjK5ugnnzKKNxHQ6nIMCLdaaVVIVTSScY532XFHkNlXLpz8UazdPecQApxqjDFg6WpV5nQtW/gaIP5SYrTbLV09SjPt3wHBbrX3ido+k8/s77qllK9U7z1TaGgdieMhgF/l2pRROI8A/0fUD+l8Rp0XdDGdNW/RpiUn5noG1zk/of9YemJyEL2aYbsVsapO/t129XYEg+gezzLjjiBJs6gjUSAnPEtXq+anGbZbMFOIvSCg4/N6YkHSsO9EAPH1qARqZRIHbV5hOjji9rK7ELANtsx1qcImQJlYhq0RgBheS86FVmZad9CFpPX0HwyKck8QeYeUrfoyHa/4yXZ22+spU/BFAPpErRwCpHK6agXpayLKjDuCaIbtxn5vGMgYCKqVXp2dxMtvaiWRUqZtEYneveg4J+RmT3O/OcqXlrWvBITZ4hjoSUtPSDK7r5DsMosnO0Sy1ECmpSeEnFlec0wZxfMISHgSyeQdcvbty0wTdtQqZZNG4XAE9Mqs0pB4lUD2GoNC44ogSXNgBpJzjfCKgvAEkqTkAOEVViZefudPGcX9CWix5B+yP6erB7i/e+XWrT1X0QzbTfT2BYk9yxlMvOzssxCvt3RVyLropccjyYRUPMhZiJYt9AKix7jxFUuPbzUG1+4aGdIaIchplz+0/rrKoOc/a+CZxspxF1sIi5zgTEJxy5MQnsin1fKHrGYW5wKR4JZRWas8ZRa/TkRiiC1Bj5VR56x6gngcEFKdFD5evlsE8PO8rtYt+lnxBPsLoOiyIsURYY6VVnv8MNYM2y0Z5/0xX1q2rTVn+kuB7TSBBJtOEC3b3w1K7HQ3N22TcHuVSnQMxsSECG5/K1+fNMP+HYD4AV5au22jqzr3L6fs6eyx91MUeFB4QhHcks+oJ5WfMj41CJFot1wmIXVsXPEUW7wnQUlyuIf3WzWxI56vVz4pTmVtkCCfy3hX0u3K9u/joCJsh1frohMtPVE3Nr9J9m2p2qYSZMW26uTXJaXHGjZpBLjkjSVvXbzplI2fB0DhVQDBmU7Q9rrMOXF5ooVH8npi35WD6cwObKmg87JkcKscIFPZQhchzhdf1fD1nB73/RNI9SzemZSSLH/vo5auVtUO8Xy98opgdPNyIcjc5j29CoafrOcDUdV2uNg39Vl6wjvysmHWHHuKmkqQVHbgC4ROMxMzv2/patk9JGXYdxCAUDEWEeZRiV4HRZKWB/ECKx2/uNIsmln8AIhq3cRf2HgJ7NTdrQ5pZvGXQPQ10ZR4m6X7h+d2zXtwK8cZ+ptkGTxj6erOQZaHZhQMAEwLsgi3AoH4mobwlJUWPYsrXhfd77J6Ib9/sHRV2P4OMt7xLtNUggzv1zfT3XrVR3H5VQ4VwfV8eeDScwrgawQkuMArQ8qne8/ueL7SiEnDfhYBPlNtWPxQWTa4Y+93DnxZMwofAKAYZ0Ewx8r4v+unjUc2GoSl70gWzd8tXRW+rWSLSzNsGwCEyriEdAYSutuxk2ravb9s8vobXXvGHoO1+rrmD+zglJxV5zt+ixnbYp/IdU19a7wv+JGOv6kEKT/CA7lEjHTYZfmqzB11tiolHeCTlh4XNg40074fCA6sbeC6jitrrfuMPDMJgEOY6MvE3cXreXUveLr97Vf/IUtluupJ6Nd++JDUPSCs9QSAEpa2i5Fiy14zS9i23VXp/d1YlKpLM2z3TMg9G6p7EcFh+Yz6q7qCE0yg6QQpk2TFv3tH47DDO7FNWViZ1iZ1ub0FTaIXAbA9YD+XWboq7Gols4XrEVFIwgAOHIlACin4C5n+0tK2ja46d8XHvt/l5SJfe6gp0+G1Ve3Kuu01w3YzNwpJJhAontMTQvy9lrVvB5RUxJL9nQBcktNVIUQ5bTyyzmBpqW9ii3qYrLyP5Lwy1ooJrRGCBAVotHKaaT8KJC4QmV4k2DuXUYVUoJppfx8IhFNtIqcTMbYLAMm8Y4N/ZHtsEQeJKlx+SHrW8kNSmUvK45aufsmrBBwinJRLq1WpgYYr8r4peSUDt7goAdX80WDB0uPTKrEcTrl6AQAEcmcJYl8EvCunxyXfeEFaN15mQhEkadpXI8EZAWDy/Cj2zNVLdDEiHkfC94lbKQGNXDqeCdCvG2TlusELrvhBogo1w/4hAHxT0k/5aejlLQwA51q6WlVctNO0j1G84tndSr1Y85pJtGwSrr2hqe/zodt/cl7/VHQU/6wwQQCRyYzQ9SZsN0HaTTCCFGYgoXDSXguEu7OVS6viTlD5QHEgIXN7R4IfyGoMuroR4dhcWhVLG0gssPy939202FQYU4CoQs2w3Th6IdadiA7IZxL9SU8vZ3GbVjPsHwDAt4QhEi1GhIUyp0qocN1JZu1FiFD1RAmy4ILJ0LuWnqhJbhGsZaOlJhhB+r+IpHjGoq8Cz6c4Tqq3fzsaUl6QAH03AEhThGKbs32uK1ghTs0oPgdAn67VXy+q0GeLeNVhaCrbfzqhcq2gG+CuvK5WvbZohv06APyXQFTAi5BKCz0OD8tPIs2wXa9f1/u3WdfTlq7u0izlI9E7oQjiTlwzCn+T7eSsBgVfsvT4tl4grYj1xqVlx/Wqi54EwC9K2o0o8ZtnHEedqELNtI8AkuYRftPS1fJCT2btQxHBDeutvaqCvlJGoYMApSXmFMJEr95R1MyiIz5d4A6HcK6i0G9GsshGKksIp+fTqvuEa/k14QiSNAp3IKBwYLgSaUK4Jl+n3ICH16/7j/tJicVG5O2qGYV+AEyI//L+UYVatnARIAq7SAS0IK8nyhGSSdPrCYpL3ist3ezHc6Z/UP4TyRYvByShJgkRPGTp8amISJphuy7yVWczCOB6RbxEQPt4rNwR1XWU6HiWFLg7P2vsbCdPQILY30OAqtPxSkOgQ0fnZidu8/tr0oziYgCqd7pcVkFEZ+Uzid6gf3XeW6v+UYWaYUsTPiA5M3KZaeXY+OGDSDfTohAOEFNox/mzEs+teMrKnRMJ4JL88FauZtiuY2jZ/yzo5XXeErT9WJSbcATpMuyvOABexTffwLYttsl17eBbd9AnIbRgw5iCe86fFXfDXwNdXjtRRP5RhZphu0FYYp7gGk9br2KiiHBgLq0uGs5CKa/nPvyxP0wi9wM+8GvOSD2SA4E1BoQmHEEyPfbGSxX6u/TAkOgmK5OQbZNWmcLLNV5ir8Flk9efLHPj8LKtZ+yFz9amn0+bGDVZ7Acg4RUOEU7NpdUfepeLg8fe3CK+r1suzh171/zC7k7JM62SML16nsxjYK2HGsKEI8jwv58bQSfxjg1YUi1rnyGLLxEQJlpsZRIj8hDQsvYlgPDdWl2+W8+G7fVv/pilq3tV6kqZ9s1EcKK4glc4ZmqGLXVOXH4wODevJ1aN69juBe2bTtmkboVft5+xdrgXigkejSYkQbrm2fs5DriVnSoP5Hyj/SrxqfOaVikqdVfxM5BPwc8bLT0uuri4nsoeocCAdKmVTpxX2V/S6O9BUCSHlnSdM4QXKG3uh7Z4kYMH5WfHH6jSlbUfX74rVj/QzSPFUiMXaqt0TUiCuGAm59mHKg7OcIB2BaRcPu2dirQWfL+yalWyRIdbmcSdIzGeZhQ6ATAvaVPOrCLTpRm2/Iko2RpOGXaGAGQRhO53metHJvmuwCeXTV5vr9pXRc2w3QQTmt/8JvLTY8XTkS8BgeH8WeUtUb8rTPb0VHbgG4TOj0S9oq9TmehzF30c1oq9ighr17aROThq2cVHA5bEU30CN6z2BQ/nROmTMJUtnk5IwsFj5TgcgIP7PLLf18NvPNxngnhYycslpEL8eUtXhRPxekZPmQNHETkyj+Cyw2Ft+5RpH0Cub5Rw4cuWHhcqW2mG7cbgC7tqRPQeYjmOpTZeBEChr1izEguFvrP2XoTwa685TfSnBz9BfFZzyiz+hoiEBbuqCdJNVrr+jpiw6IyBgwgcYTECgJRwPrtO0gPK4V28N6VlqWXzRXgKYx/ukes6RPggn3HN4+u2f7DkLWmAmHsGpMBhY+lQr96fU5j7/ATxQC1l2LcSwDGe/54KnJmbpdZ1jKxt35Ud2MdBR5YkYZXLSGUbnxzAfnVL5GcmkskQQDavq5IcXyuEk0bxYZScnEfh6cFPEJ+/lKRh9yCApwt7TIl9fv6sqYGqVFV2c9a8xZ8rOSVJ5hP80NLjQihvyrCflbnYk9O+TX72vrL4dvekPEDe3uFR+ThuuhKyHUEEeNtR4NSJ/vRggvgQRDOLKSDyciH5wNLV9cI8sv0Kb9Z+dCeziz6NGCu7h9RcQ5auit8Sw0Ipo3gnAUkzzFfrwT9PgvbdVsZ4eM1H67GPgJibtxe3RKAFiENm76wDZdlfwkAyptvwK5aHeXwSXbsBIA9Y6fhBYSw7+6qHP/HRh8vcSD7hqo0q1ObZx4MDVZVyy40QF1vpuOcBpWYU8x6Rj9V9EuWsTKIrzDyi0oYJ4mHpVLbweUL8vew2Al6U0+Ni8c4Aq+bkKxdO3iDW/r5MtDaq0KtcQu2pd62ulFGcQ0BX1BsOIh2aSyfcOBe+PBBggngAM8u0Nxxyk7FJrtHu/XslbqitVZgyiguXJ7cTnlQOlRJ9mQM8M6gkjcJxCPi/fqt+eZrUv65TWrZLz7ALPDNEjgATxGdlLC/X9hICbFMrgm3rbJDr2mtJ2EXlRZDKqMJU7z1rOUPrvIoAG9f2Uy8DineK09WaiOCafEYVSkGEndNEbccE8bFsyrRNIphVJYLwmJWudhAc6eLQjOJ7ADRFaFfhOpK8ctHeGIsJZQsQ8flcOu57QBkoYR/CkVZa9Sp5MNIpTVh5Jkgd0w7n9Br2jsUCtinzK/NxhVkZmmm/AiRmqa+sVejps4V4k5WO13XZTxr2EnnV3nKU12vrDrXvWFtWLsxcJnobJkgLLKwZhacBUJKLd3VUYSprXyfLooJI38qlEzfUG7ZmFP8EQDvJ5BDxhlw6LmY0qac0gveZIC0wumbYrn9TVRyHO4zKqMKkaT8uKwqkKG1b987av+4ZRNKw70WAr8imR6Acn9c7FrRg6uOuSyZIC0ymmfZ9QDBd6Ho4qlC7/P7NYFL7K2JmFQh8QOlVj3G598hby5YN7XDtdw6UFiFtARxjuksmSAvMo5n2AlmpgpVRhSmz8FUiFBNFj+CAUjOKnQAkizu52dLV1aWeWzD/8dQlE6QF1tKMwg0AeKrYNZajClOG/T2SZGYZyQFlV09hd0cRY8oVcvbtrVPUswWQjNkumSAtMI1P0czheu3FXwCREF2IEIvn9KmB8+EOZzBxvzXc+oNvAeLFVjoulqFuAQbjpUsmSAsspZmFuUAolF4AWBFV6HVAWe+AUDaVlQVUK+u8t2DK47ZLJkgLTOdd59xNb1o6BaBN5kY/ZvLVtgCylnXJBGkB9KlssYuQhEKggPAiOnQRIcpi1q+z9PiMFgw30l0yQVpg/pQ5cBqRc72k63cI4cdY695SFvRPTdqCaUSiSyZIC8zcZQwc54Aj8bbFQQBy/a+EWA+HlK36Mh1uQmm+1iACTJA1CPbKrrqyA4c46HjEYeAS0ZER37X0+JgoKNMCuFraJROkBfDPNAodMY/6HPLh0N2Wnji0BUONfJdMkBYsgZk9hd1jkkM8r6Eg0HdzemJuC4Ya+S6ZIC1YAjPnFT4Tc/DZoF2TonTkZ3W4Saf5WsMIMEHWMOBud2ca/Zu3geLmrgp0hTkgDKSYheoiwASpC1HjBWZc9sAG7e1t/wqmmZ609ET9DOvBlLHUCBFggowQsEaIH7tgQWzTVzcZCqgrcNmGgPpYbAQIMEFGAFYjRTXDHgSAtvo66URLT/ykvhxLNAMBJkgzUA2gUzMK7wDgRvVEcRC2zJ2jBv5eqaeP748MASbIyPBqmLSXx25NB69burpZwzplRSNGgAkyYsga00AzbNdjd1d/bXSbpSeObkyPrCUMAkyQMKg1oI1nWbUK3QgwO6er2QZ0xypCIsAECQncaJtppn0/EBzop4fDY0eL8ujbM0FGj2EoDZph3wYAR/o15gPCUNA2tBETpKFwBleWMoo3EZBfdpFfW7q6T3CNLNkMBJggzUA1gM6UWewjopleokhk5DIJzwpXAbpgkQYgwARpAIhhVKSM4hUENMezLdExViYhq4YbpjtuExIBJkhI4EbbLGUULyCgCz31DA5ubp1z0Guj7Yfbjw4BJsjo8AvdutOwMwpAj0wBAvw1p6ufCq2cGzYMASZIw6AcmaLOrH2GgnC1tBXRT61M4oSRaWTpZiDABGkGqgF0dvbYJyoK3CwVdZwua/Y0zoAYAMdmizBBmo2wh/6kUTgcAaUVnhSH9uidnXiiRUPjbisQYIK0aDkks4VpiLhI6J5omZVJrNWiYXG3NQgwQVq0JHzqCBYtXVVbNCzulgkydtbAcP3D6nrrw0V0xs4ooz0SfoK02P5atngsIpxMCA84RPf26eoLLR4Sd8/fILwGGIFgCPATJBhOLBVRBJggETU8TzsYAkyQYDixVEQRYIJE1PA87WAIMEGC4cRSEUWACRJRw/O0gyHABAmGE0tFFAEmSEQNz9MOhgATJBhOLBVRBJggETU8TzsYAkyQYDixVEQRYIJE1PA87WAIMEGC4cRSEUWACRJRw/O0gyHABAmGE0tFFAEmSEQNz9MOhgATJBhOLBVRBJggETU8TzsYAkyQYDixVEQRYIJE1PA87WAIMEGC4cRSEUWACRJRw/O0gyHABAmGE0tFFAEmSEQNz9MOhgATJBhOLBVRBJggETU8TzsYAkyQYDixVEQRYIJE1PA87WAIMEGC4cRSEUWACRJRw/O0gyHABAmGE0tFFAEmSEQNz9MOhgATJBhOLBVRBJggETU8TzsYAkyQYDixVEQRYIJE1PA87WAI/D8CB5dfCSe+3AAAAABJRU5ErkJggg==;" parent="1" vertex="1">
          <mxGeometry x="80" y="120" width="60" height="60" as="geometry" />
        </mxCell>
        <mxCell id="m4RghLFEex4PMgL7YoKE-6" value="&lt;b&gt;&lt;font style=&quot;font-size: 16px;&quot;&gt;预处理&lt;/font&gt;&lt;/b&gt;" style="rounded=1;whiteSpace=wrap;html=1;fillColor=#dae8fc;strokeColor=#DAE8FC;" parent="1" vertex="1">
          <mxGeometry x="190" y="120" width="120" height="60" as="geometry" />
        </mxCell>
        <mxCell id="m4RghLFEex4PMgL7YoKE-7" value="&lt;b&gt;&lt;font style=&quot;font-size: 16px;&quot;&gt;特征提取&lt;/font&gt;&lt;/b&gt;" style="rounded=1;whiteSpace=wrap;html=1;fillColor=#DAE8FC;strokeColor=#DAE8FC;" parent="1" vertex="1">
          <mxGeometry x="360" y="120" width="120" height="60" as="geometry" />
        </mxCell>
        <mxCell id="m4RghLFEex4PMgL7YoKE-9" value="" style="shape=flexArrow;endArrow=classic;html=1;rounded=0;fillColor=#6C8EBF;strokeColor=#6C8EBF;width=8.965517241379311;endSize=2.5933333333333333;endWidth=8.011494252873563;" parent="1" edge="1">
          <mxGeometry width="50" height="50" relative="1" as="geometry">
            <mxPoint x="320" y="150.04999999999998" as="sourcePoint" />
            <mxPoint x="350" y="149.70999999999998" as="targetPoint" />
          </mxGeometry>
        </mxCell>
        <mxCell id="m4RghLFEex4PMgL7YoKE-10" value="&lt;b&gt;&lt;font style=&quot;font-size: 16px;&quot;&gt;语言模型&lt;/font&gt;&lt;/b&gt;" style="rounded=1;whiteSpace=wrap;html=1;fillColor=#dae8fc;strokeColor=#DAE8FC;" parent="1" vertex="1">
          <mxGeometry x="190" y="230" width="120" height="60" as="geometry" />
        </mxCell>
        <mxCell id="m4RghLFEex4PMgL7YoKE-11" value="&lt;b&gt;&lt;font style=&quot;font-size: 16px;&quot;&gt;声学模型&lt;/font&gt;&lt;/b&gt;" style="rounded=1;whiteSpace=wrap;html=1;fillColor=#DAE8FC;strokeColor=#DAE8FC;" parent="1" vertex="1">
          <mxGeometry x="360" y="230" width="120" height="60" as="geometry" />
        </mxCell>
        <mxCell id="m4RghLFEex4PMgL7YoKE-12" value="" style="shape=flexArrow;endArrow=classic;html=1;rounded=0;fillColor=#6C8EBF;strokeColor=#6C8EBF;width=8.965517241379311;endSize=2.5933333333333333;endWidth=8.011494252873563;" parent="1" edge="1">
          <mxGeometry width="50" height="50" relative="1" as="geometry">
            <mxPoint x="419.71" y="190.33999999999997" as="sourcePoint" />
            <mxPoint x="419.71" y="220" as="targetPoint" />
          </mxGeometry>
        </mxCell>
        <mxCell id="m4RghLFEex4PMgL7YoKE-13" value="" style="endArrow=none;dashed=1;html=1;rounded=0;strokeColor=#6C8EBF;strokeWidth=2;" parent="1" edge="1">
          <mxGeometry width="50" height="50" relative="1" as="geometry">
            <mxPoint x="180" y="220" as="sourcePoint" />
            <mxPoint x="490" y="220" as="targetPoint" />
          </mxGeometry>
        </mxCell>
        <mxCell id="m4RghLFEex4PMgL7YoKE-14" value="" style="endArrow=none;dashed=1;html=1;rounded=0;strokeColor=#6C8EBF;strokeWidth=2;" parent="1" edge="1">
          <mxGeometry width="50" height="50" relative="1" as="geometry">
            <mxPoint x="180" y="320" as="sourcePoint" />
            <mxPoint x="490" y="320" as="targetPoint" />
          </mxGeometry>
        </mxCell>
        <mxCell id="m4RghLFEex4PMgL7YoKE-15" value="" style="endArrow=none;dashed=1;html=1;rounded=0;strokeColor=#6C8EBF;strokeWidth=2;" parent="1" edge="1">
          <mxGeometry width="50" height="50" relative="1" as="geometry">
            <mxPoint x="180" y="220" as="sourcePoint" />
            <mxPoint x="180" y="320" as="targetPoint" />
          </mxGeometry>
        </mxCell>
        <mxCell id="m4RghLFEex4PMgL7YoKE-16" value="" style="endArrow=none;dashed=1;html=1;rounded=0;strokeColor=#6C8EBF;strokeWidth=2;" parent="1" edge="1">
          <mxGeometry width="50" height="50" relative="1" as="geometry">
            <mxPoint x="490" y="220" as="sourcePoint" />
            <mxPoint x="490" y="320" as="targetPoint" />
          </mxGeometry>
        </mxCell>
        <mxCell id="m4RghLFEex4PMgL7YoKE-17" value="&lt;font style=&quot;font-size: 16px;&quot;&gt;预测模型&lt;/font&gt;" style="text;html=1;align=center;verticalAlign=middle;whiteSpace=wrap;rounded=0;fontStyle=1" parent="1" vertex="1">
          <mxGeometry x="300" y="290" width="70" height="30" as="geometry" />
        </mxCell>
        <mxCell id="m4RghLFEex4PMgL7YoKE-18" value="&lt;font style=&quot;font-size: 20px;&quot; color=&quot;#6c8ebf&quot;&gt;Hello&lt;/font&gt;" style="text;html=1;align=center;verticalAlign=middle;whiteSpace=wrap;rounded=0;fontStyle=1;fontFamily=Times New Roman;strokeColor=none;" parent="1" vertex="1">
          <mxGeometry x="80" y="240" width="60" height="30" as="geometry" />
        </mxCell>
        <mxCell id="m4RghLFEex4PMgL7YoKE-19" value="&lt;b&gt;&lt;font style=&quot;font-size: 16px;&quot;&gt;文本&lt;/font&gt;&lt;/b&gt;" style="text;html=1;align=center;verticalAlign=middle;whiteSpace=wrap;rounded=0;" parent="1" vertex="1">
          <mxGeometry x="80" y="270" width="60" height="30" as="geometry" />
        </mxCell>
        <mxCell id="m4RghLFEex4PMgL7YoKE-20" value="" style="shape=flexArrow;endArrow=classic;html=1;rounded=0;fillColor=#6C8EBF;strokeColor=#6C8EBF;width=8.965517241379311;endSize=2.5933333333333333;endWidth=8.011494252873563;" parent="1" edge="1">
          <mxGeometry width="50" height="50" relative="1" as="geometry">
            <mxPoint x="350" y="260.04999999999995" as="sourcePoint" />
            <mxPoint x="320" y="259.71000000000004" as="targetPoint" />
          </mxGeometry>
        </mxCell>
        <mxCell id="m4RghLFEex4PMgL7YoKE-21" value="" style="shape=flexArrow;endArrow=classic;html=1;rounded=0;fillColor=#6C8EBF;strokeColor=#6C8EBF;width=8.965517241379311;endSize=2.5933333333333333;endWidth=8.011494252873563;" parent="1" edge="1">
          <mxGeometry width="50" height="50" relative="1" as="geometry">
            <mxPoint x="180" y="260.04999999999995" as="sourcePoint" />
            <mxPoint x="150" y="259.71000000000004" as="targetPoint" />
          </mxGeometry>
        </mxCell>
        <mxCell id="m4RghLFEex4PMgL7YoKE-31" style="edgeStyle=orthogonalEdgeStyle;rounded=0;orthogonalLoop=1;jettySize=auto;html=1;exitX=0.5;exitY=1;exitDx=0;exitDy=0;entryX=0.5;entryY=0;entryDx=0;entryDy=0;strokeColor=#6C8EBF;strokeWidth=2;" parent="1" source="m4RghLFEex4PMgL7YoKE-23" target="m4RghLFEex4PMgL7YoKE-24" edge="1">
          <mxGeometry relative="1" as="geometry" />
        </mxCell>
        <mxCell id="m4RghLFEex4PMgL7YoKE-23" value="&lt;b&gt;&lt;font style=&quot;font-size: 16px;&quot;&gt;帧分割&lt;/font&gt;&lt;/b&gt;" style="rounded=1;whiteSpace=wrap;html=1;fillColor=#DAE8FC;strokeColor=#DAE8FC;" parent="1" vertex="1">
          <mxGeometry x="560" y="169.86" width="120" height="40" as="geometry" />
        </mxCell>
        <mxCell id="m4RghLFEex4PMgL7YoKE-32" style="edgeStyle=orthogonalEdgeStyle;rounded=0;orthogonalLoop=1;jettySize=auto;html=1;exitX=1;exitY=0.5;exitDx=0;exitDy=0;entryX=0;entryY=0.5;entryDx=0;entryDy=0;strokeColor=#6C8EBF;strokeWidth=2;" parent="1" source="m4RghLFEex4PMgL7YoKE-24" target="m4RghLFEex4PMgL7YoKE-26" edge="1">
          <mxGeometry relative="1" as="geometry" />
        </mxCell>
        <mxCell id="m4RghLFEex4PMgL7YoKE-24" value="&lt;b&gt;&lt;font style=&quot;font-size: 16px;&quot;&gt;窗函数&lt;/font&gt;&lt;/b&gt;" style="rounded=1;whiteSpace=wrap;html=1;fillColor=#DAE8FC;strokeColor=#DAE8FC;" parent="1" vertex="1">
          <mxGeometry x="560" y="239.86" width="120" height="40" as="geometry" />
        </mxCell>
        <mxCell id="m4RghLFEex4PMgL7YoKE-30" style="edgeStyle=orthogonalEdgeStyle;rounded=0;orthogonalLoop=1;jettySize=auto;html=1;exitX=0;exitY=0.5;exitDx=0;exitDy=0;entryX=1;entryY=0.5;entryDx=0;entryDy=0;strokeColor=#6C8EBF;strokeWidth=2;" parent="1" source="m4RghLFEex4PMgL7YoKE-25" target="m4RghLFEex4PMgL7YoKE-23" edge="1">
          <mxGeometry relative="1" as="geometry" />
        </mxCell>
        <mxCell id="m4RghLFEex4PMgL7YoKE-25" value="&lt;b&gt;&lt;font style=&quot;font-size: 16px;&quot;&gt;高频预放大&lt;/font&gt;&lt;/b&gt;" style="rounded=1;whiteSpace=wrap;html=1;fillColor=#DAE8FC;strokeColor=#DAE8FC;" parent="1" vertex="1">
          <mxGeometry x="710" y="169.86" width="120" height="40" as="geometry" />
        </mxCell>
        <mxCell id="m4RghLFEex4PMgL7YoKE-33" style="edgeStyle=orthogonalEdgeStyle;rounded=0;orthogonalLoop=1;jettySize=auto;html=1;exitX=1;exitY=0.5;exitDx=0;exitDy=0;entryX=0;entryY=0.5;entryDx=0;entryDy=0;strokeColor=#6C8EBF;strokeWidth=2;" parent="1" source="m4RghLFEex4PMgL7YoKE-26" target="m4RghLFEex4PMgL7YoKE-27" edge="1">
          <mxGeometry relative="1" as="geometry" />
        </mxCell>
        <mxCell id="m4RghLFEex4PMgL7YoKE-26" value="&lt;b&gt;&lt;font face=&quot;Times New Roman&quot; style=&quot;font-size: 16px;&quot;&gt;DTC&lt;/font&gt;&lt;/b&gt;" style="rounded=1;whiteSpace=wrap;html=1;fillColor=#DAE8FC;strokeColor=#DAE8FC;" parent="1" vertex="1">
          <mxGeometry x="710" y="239.86" width="120" height="40" as="geometry" />
        </mxCell>
        <mxCell id="m4RghLFEex4PMgL7YoKE-34" style="edgeStyle=orthogonalEdgeStyle;rounded=0;orthogonalLoop=1;jettySize=auto;html=1;exitX=1;exitY=0.5;exitDx=0;exitDy=0;strokeColor=#6C8EBF;strokeWidth=2;" parent="1" source="m4RghLFEex4PMgL7YoKE-27" target="m4RghLFEex4PMgL7YoKE-28" edge="1">
          <mxGeometry relative="1" as="geometry" />
        </mxCell>
        <mxCell id="m4RghLFEex4PMgL7YoKE-27" value="&lt;b&gt;&lt;font style=&quot;font-size: 16px;&quot;&gt;梅尔倒谱系数&lt;/font&gt;&lt;/b&gt;" style="rounded=1;whiteSpace=wrap;html=1;fillColor=#DAE8FC;strokeColor=#DAE8FC;" parent="1" vertex="1">
          <mxGeometry x="860" y="239.86" width="120" height="40" as="geometry" />
        </mxCell>
        <mxCell id="m4RghLFEex4PMgL7YoKE-35" style="edgeStyle=orthogonalEdgeStyle;rounded=0;orthogonalLoop=1;jettySize=auto;html=1;exitX=0.5;exitY=0;exitDx=0;exitDy=0;entryX=0.5;entryY=1;entryDx=0;entryDy=0;strokeColor=#6C8EBF;strokeWidth=2;" parent="1" source="m4RghLFEex4PMgL7YoKE-28" target="m4RghLFEex4PMgL7YoKE-29" edge="1">
          <mxGeometry relative="1" as="geometry" />
        </mxCell>
        <mxCell id="m4RghLFEex4PMgL7YoKE-28" value="&lt;b&gt;&lt;font style=&quot;font-size: 16px;&quot;&gt;离散余弦变换&lt;/font&gt;&lt;/b&gt;" style="rounded=1;whiteSpace=wrap;html=1;fillColor=#DAE8FC;strokeColor=#DAE8FC;" parent="1" vertex="1">
          <mxGeometry x="1010" y="239.86" width="120" height="40" as="geometry" />
        </mxCell>
        <mxCell id="m4RghLFEex4PMgL7YoKE-44" style="edgeStyle=orthogonalEdgeStyle;rounded=0;orthogonalLoop=1;jettySize=auto;html=1;exitX=0.5;exitY=0;exitDx=0;exitDy=0;entryX=0.5;entryY=1;entryDx=0;entryDy=0;strokeColor=#6C8EBF;strokeWidth=2;" parent="1" source="m4RghLFEex4PMgL7YoKE-29" target="m4RghLFEex4PMgL7YoKE-43" edge="1">
          <mxGeometry relative="1" as="geometry" />
        </mxCell>
        <mxCell id="m4RghLFEex4PMgL7YoKE-29" value="&lt;b&gt;&lt;font style=&quot;font-size: 16px;&quot;&gt;特征提取&lt;/font&gt;&lt;/b&gt;" style="rounded=1;whiteSpace=wrap;html=1;fillColor=#DAE8FC;strokeColor=#DAE8FC;" parent="1" vertex="1">
          <mxGeometry x="1010" y="169.86" width="120" height="40" as="geometry" />
        </mxCell>
        <mxCell id="m4RghLFEex4PMgL7YoKE-42" style="edgeStyle=orthogonalEdgeStyle;rounded=0;orthogonalLoop=1;jettySize=auto;html=1;exitX=0.5;exitY=1;exitDx=0;exitDy=0;strokeColor=#6C8EBF;strokeWidth=2;" parent="1" source="m4RghLFEex4PMgL7YoKE-36" target="m4RghLFEex4PMgL7YoKE-25" edge="1">
          <mxGeometry relative="1" as="geometry" />
        </mxCell>
        <mxCell id="m4RghLFEex4PMgL7YoKE-36" value="&lt;b&gt;&lt;font style=&quot;font-size: 16px;&quot;&gt;音频&lt;/font&gt;&lt;/b&gt;" style="text;html=1;align=center;verticalAlign=middle;whiteSpace=wrap;rounded=0;" parent="1" vertex="1">
          <mxGeometry x="740" y="109.86" width="60" height="30" as="geometry" />
        </mxCell>
        <mxCell id="m4RghLFEex4PMgL7YoKE-37" value="" style="endArrow=none;dashed=1;html=1;rounded=0;strokeColor=#6C8EBF;strokeWidth=2;" parent="1" edge="1">
          <mxGeometry width="50" height="50" relative="1" as="geometry">
            <mxPoint x="540" y="319.17" as="sourcePoint" />
            <mxPoint x="1150" y="319.17" as="targetPoint" />
          </mxGeometry>
        </mxCell>
        <mxCell id="m4RghLFEex4PMgL7YoKE-38" value="" style="endArrow=none;dashed=1;html=1;rounded=0;strokeColor=#6C8EBF;strokeWidth=2;" parent="1" edge="1">
          <mxGeometry width="50" height="50" relative="1" as="geometry">
            <mxPoint x="542" y="149.86" as="sourcePoint" />
            <mxPoint x="1152" y="149.86" as="targetPoint" />
          </mxGeometry>
        </mxCell>
        <mxCell id="m4RghLFEex4PMgL7YoKE-39" value="" style="endArrow=none;dashed=1;html=1;rounded=0;strokeColor=#6C8EBF;strokeWidth=2;" parent="1" edge="1">
          <mxGeometry width="50" height="50" relative="1" as="geometry">
            <mxPoint x="540" y="159.86" as="sourcePoint" />
            <mxPoint x="540" y="319.86" as="targetPoint" />
          </mxGeometry>
        </mxCell>
        <mxCell id="m4RghLFEex4PMgL7YoKE-40" value="" style="endArrow=none;dashed=1;html=1;rounded=0;strokeColor=#6C8EBF;strokeWidth=2;" parent="1" edge="1">
          <mxGeometry width="50" height="50" relative="1" as="geometry">
            <mxPoint x="1150" y="159.86" as="sourcePoint" />
            <mxPoint x="1150" y="319.86" as="targetPoint" />
          </mxGeometry>
        </mxCell>
        <mxCell id="m4RghLFEex4PMgL7YoKE-41" value="&lt;font style=&quot;font-size: 16px;&quot; face=&quot;Times New Roman&quot;&gt;MFCC&lt;/font&gt;" style="text;html=1;align=center;verticalAlign=middle;whiteSpace=wrap;rounded=0;fontStyle=1" parent="1" vertex="1">
          <mxGeometry x="817" y="289.86" width="60" height="30" as="geometry" />
        </mxCell>
        <mxCell id="m4RghLFEex4PMgL7YoKE-43" value="&lt;b&gt;&lt;font style=&quot;font-size: 16px;&quot;&gt;特征&lt;/font&gt;&lt;/b&gt;" style="text;html=1;align=center;verticalAlign=middle;whiteSpace=wrap;rounded=0;" parent="1" vertex="1">
          <mxGeometry x="1040" y="109.86" width="60" height="30" as="geometry" />
        </mxCell>
        <mxCell id="m4RghLFEex4PMgL7YoKE-45" value="" style="shape=flexArrow;endArrow=classic;startArrow=classic;html=1;rounded=0;startWidth=6.666666666666666;startSize=2.5761904761904764;endWidth=6.666666666666666;endSize=2.5761904761904764;fillColor=#6C8EBF;strokeColor=#6c8ebf;" parent="1" edge="1">
          <mxGeometry width="100" height="100" relative="1" as="geometry">
            <mxPoint x="490" y="160" as="sourcePoint" />
            <mxPoint x="530" y="160" as="targetPoint" />
          </mxGeometry>
        </mxCell>
      </root>
    </mxGraphModel>
  </diagram>
</mxfile>
